<?xml version="1.0" standalone="no"?>
<!DOCTYPE svg PUBLIC "-//W3C//DTD SVG 20010904//EN"
 "http://www.w3.org/TR/2001/REC-SVG-20010904/DTD/svg10.dtd">
<svg version="1.0" xmlns="http://www.w3.org/2000/svg"
 width="200" height="200" viewBox="0 0 1024.000000 1024.000000"
 preserveAspectRatio="xMidYMid meet">
<metadata>
Created by potrace 1.16, written by Peter Selinger 2001-2019
</metadata>
<g transform="translate(0.000000,1024.000000) scale(0.100000,-0.100000)"
fill="white" stroke="none">
<path d="M4970 8974 c-878 -60 -1616 -345 -2275 -878 -149 -121 -449 -423
-571 -576 -478 -599 -762 -1288 -846 -2055 -17 -158 -17 -624 0 -780 102 -922
490 -1737 1131 -2375 740 -737 1715 -1140 2756 -1140 1459 0 2790 808 3465
2103 478 917 570 2005 253 2992 -126 394 -343 814 -586 1138 -614 816 -1495
1354 -2492 1522 -227 38 -642 62 -835 49z m556 -168 c261 -55 512 -169 724
-328 349 -263 594 -653 682 -1089 20 -101 23 -142 23 -354 -1 -212 -3 -252
-23 -345 -54 -244 -165 -500 -299 -690 -78 -110 -286 -323 -388 -398 -613
-451 -1425 -479 -2054 -72 -128 83 -218 158 -331 277 -229 239 -388 542 -460
878 -31 143 -39 455 -16 613 99 669 556 1224 1194 1446 212 74 365 96 627 91
166 -3 220 -8 321 -29z m-1407 -137 c-366 -236 -651 -603 -788 -1014 -278
-835 35 -1735 773 -2229 250 -167 561 -277 874 -308 l122 -12 0 -527 0 -527
-24 -6 c-13 -3 -42 -24 -65 -47 -141 -142 -46 -373 154 -373 114 0 199 72 220
186 15 82 -47 195 -126 230 l-29 13 0 525 0 526 122 12 c368 37 731 183 1017
410 30 23 34 24 27 7 -4 -11 -19 -69 -34 -130 -22 -96 -26 -133 -26 -285 -1
-203 18 -311 85 -490 115 -306 357 -577 654 -731 l71 -37 -75 -31 c-209 -85
-373 -234 -470 -428 -83 -165 -111 -377 -73 -553 12 -52 24 -105 27 -116 7
-21 7 -21 -77 4 -104 31 -258 35 -358 9 -88 -23 -213 -86 -279 -140 -115 -96
-205 -240 -236 -381 l-17 -75 -66 51 c-183 140 -403 165 -607 68 -140 -67
-250 -193 -301 -345 -64 -191 -16 -411 121 -564 l36 -40 -38 5 c-167 23 -372
62 -498 94 -1416 361 -2499 1513 -2774 2950 -49 256 -55 340 -56 695 0 374 9
475 66 760 204 1008 827 1902 1705 2449 255 158 513 279 804 377 96 32 181 59
189 59 8 0 -15 -19 -50 -41z m2229 -18 c768 -256 1419 -738 1892 -1401 229
-321 423 -715 535 -1090 40 -134 87 -326 76 -314 -4 5 -30 41 -56 79 -27 39
-90 111 -140 160 -189 187 -427 315 -695 372 -121 26 -411 25 -530 -1 -157
-34 -304 -92 -448 -176 -42 -24 -51 -27 -43 -13 24 45 92 261 115 365 173 782
-165 1600 -843 2037 -35 22 -58 41 -52 41 7 0 92 -27 189 -59z m1585 -2327
c483 -92 879 -489 971 -974 59 -307 3 -611 -161 -882 -177 -293 -502 -510
-852 -569 -113 -19 -322 -14 -441 11 -493 102 -880 498 -965 989 -19 109 -19
325 0 437 92 524 534 939 1070 1003 98 12 273 5 378 -15z m942 -1926 c-2 -13
-16 -77 -31 -143 -73 -334 -203 -682 -367 -980 -60 -109 -205 -345 -212 -345
-2 0 -1 22 2 48 8 70 -14 213 -48 317 -53 159 -151 298 -284 404 l-73 59 88
16 c101 18 265 73 354 118 208 104 404 279 531 471 21 31 40 57 42 57 2 0 1
-10 -2 -22z m-1280 -668 c239 -74 422 -252 501 -485 35 -106 44 -264 20 -380
-23 -113 -89 -242 -173 -338 -152 -172 -326 -251 -553 -251 -140 0 -209 16
-340 81 -80 39 -109 60 -186 137 -76 76 -98 106 -137 186 -25 52 -53 124 -62
160 -22 95 -20 269 5 364 66 258 299 485 550 535 30 6 64 13 75 15 49 12 232
-3 300 -24z m-1176 -1115 c423 -100 573 -639 262 -945 -112 -111 -239 -163
-396 -164 -423 -2 -696 450 -499 825 70 133 209 244 355 283 71 19 198 19 278
1z m721 -441 c78 -25 98 -28 243 -28 107 -1 153 -4 145 -11 -176 -138 -375
-270 -570 -378 l-67 -38 29 63 c46 98 63 192 57 317 -3 58 -9 117 -13 129 l-7
24 49 -25 c27 -14 87 -37 134 -53z m-1839 -4 c221 -68 353 -305 295 -530 -57
-222 -280 -369 -502 -331 -342 60 -489 459 -267 729 106 130 305 185 474 132z
m594 -679 c41 -27 90 -55 110 -62 19 -7 35 -16 35 -20 0 -7 -228 -52 -350 -69
-41 -6 -88 -13 -103 -15 l-29 -5 41 47 c55 61 95 134 117 209 l18 61 44 -48
c24 -27 77 -71 117 -98z"/>
<path d="M5075 7243 c-150 -78 -176 -267 -50 -371 128 -105 311 -42 356 123
24 89 -30 199 -122 246 -47 24 -141 25 -184 2z"/>
<path d="M5092 1957 c-151 -55 -197 -250 -85 -359 97 -95 234 -91 325 9 147
164 -32 425 -240 350z"/>
</g>
</svg>
